<svg xmlns="http://www.w3.org/2000/svg" width="430" height="430" style="width:100%;height:100%;transform:translate3d(0,0,0);content-visibility:visible" viewBox="0 0 430 430"><defs><clipPath id="e"><path d="M0 0h430v430H0z"/></clipPath><clipPath id="f"><path d="M0 0h430v430H0z"/></clipPath><clipPath id="j"><path d="M0 0h430v430H0z"/></clipPath><clipPath id="k"><path d="M0 0h430v430H0z"/></clipPath><clipPath id="g"><path d="M0 0h430v430H0z"/></clipPath><clipPath id="i"><path d="M0 0h430v430H0z"/></clipPath><filter id="a" width="100%" height="100%" x="0%" y="0%" filterUnits="objectBoundingBox"><feComponentTransfer in="SourceGraphic"><feFuncA tableValues="1.0 0.0" type="table"/></feComponentTransfer></filter><filter id="c" width="100%" height="100%" x="0%" y="0%" filterUnits="objectBoundingBox"><feComponentTransfer in="SourceGraphic"><feFuncA tableValues="1.0 0.0" type="table"/></feComponentTransfer></filter><mask id="l" mask-type="alpha"><g filter="url(#a)"><path fill="#fff" d="M0 0h430v430H0z" opacity="0"/><use xmlns:ns1="http://www.w3.org/1999/xlink" ns1:href="#b"/></g></mask><mask id="h" mask-type="alpha"><g filter="url(#c)"><path fill="#fff" d="M0 0h430v430H0z" opacity="0"/><use xmlns:ns2="http://www.w3.org/1999/xlink" ns2:href="#d"/></g></mask><g id="b" style="display:block"><path fill="#FFF" d="m296.435 175.193-35.409 28.09-18.202 34.143c-2.36 16.589 14.89 18.927 14.89 18.927l20.476-38.493 28.7-22.687"/><path fill-opacity="0" stroke="#121331" stroke-linecap="round" stroke-linejoin="round" stroke-width="0" d="m296.435 175.193-35.409 28.09-18.202 34.143c-2.36 16.589 14.89 18.927 14.89 18.927l20.476-38.493 28.7-22.687" class="primary"/></g><g id="d" style="display:block"><path fill-opacity="0" stroke="#121331" stroke-linecap="round" stroke-linejoin="round" stroke-width="0" d="m23.214 381.326 103.576-.107h82.888l.436-68.432V259.55c0-15.945-9.687-29.631-23.485-35.492.371-17.558.122-122.558-.059-138.553 0 0-.57-27.255-26.854-29.008-28.975-1.933-136.798-87.385-136.798-87.385" class="primary"/><path fill="red" d="m23.214 381.326 103.576-.107h82.888l.436-68.432V259.55c0-15.945-9.687-29.631-23.485-35.492.371-17.558.122-122.558-.059-138.553 0 0-.57-27.255-26.854-29.008-28.975-1.933-136.798-87.385-136.798-87.385"/></g></defs><g clip-path="url(#e)"><g clip-path="url(#f)" style="display:block"><g clip-path="url(#g)" mask="url(#h)" style="display:none"><g clip-path="url(#i)" style="display:none"><g style="display:none"><path class="tertiary"/><path class="tertiary" style="mix-blend-mode:multiply"/><path fill="none" class="primary"/></g><g style="display:none"><path class="secondary"/><path class="secondary" style="mix-blend-mode:multiply"/><path fill="none" class="primary"/></g><g style="display:none"><path class="quaternary"/><path fill="none" class="primary"/></g><path fill="none" class="primary" style="display:none"/><g style="display:none"><path class="secondary"/><path fill="none" class="primary"/></g><g style="display:none"><path class="quaternary"/><path fill="none" class="primary"/></g><path fill="none" class="primary" style="display:none"/><g style="display:none"><path class="senary"/><path class="senary" style="mix-blend-mode:multiply"/><path class="quinary"/><path class="quinary" style="mix-blend-mode:multiply"/></g><g style="display:none"><path fill="none" class="primary"/><path class="tertiary"/><path fill="none" class="primary"/></g></g><g style="display:none"><path class="tertiary"/><path fill="none" class="primary"/></g></g><g fill="#3A3347" style="display:block"><path d="M188.227 373.698h-58.712a2 2 0 0 1-2-2v-33.96h62.712v33.96a2 2 0 0 1-2 2z" class="quaternary"/><path d="M10.428-21.104h-20.856v33.958a2 2 0 0 0 2 2h18.856v-35.958z" class="quaternary" opacity=".5" style="mix-blend-mode:multiply" transform="translate(137.943 358.843)"/></g><path fill="none" stroke="#121331" stroke-linecap="round" stroke-linejoin="round" stroke-width="7" d="M31.356-14.355v28.71h-62.712v-28.71" class="primary" style="display:block" transform="translate(158.586 359.569)"/><path fill="none" stroke="#121331" stroke-linecap="round" stroke-linejoin="round" stroke-width="7" d="m-21.952-27.541 40.465-6.045 3.439 67.172" class="primary" style="display:block" transform="translate(208.574 129.798)"/><g clip-path="url(#j)" style="display:block"><g clip-path="url(#k)" mask="url(#l)" style="display:block"><g style="display:block"><path fill="#4BB3FD" d="m329.889 181.894 22.454 36.113 39.509 18.451s-.769 16.599-17.46 15.104l-35.04-16.401-34.022-50.833" class="tertiary"/><path fill="none" stroke="#121331" stroke-linecap="round" stroke-linejoin="round" stroke-width="7" d="m329.889 181.894 22.454 36.113 39.509 18.451s-.769 16.599-17.46 15.104l-35.04-16.401-34.022-50.833" class="primary"/></g><g style="display:block"><path fill="#646E78" d="m287.999 245.834-6.069 48.638-33.912 34.046-12.061 12.109 14.455 14.462 12.834 12.839c9.226-2.248 3.609-21.612 3.609-21.612l38.788-36.18 27.262-64.302" class="secondary"/><path fill="#646E78" fill-opacity=".5" d="m3.568-61.047-6.069 48.638-33.912 34.046-12.061 12.109 14.455 14.462 12.834 12.839c9.226-2.248 3.609-21.612 3.609-21.612l38.788-36.18 27.262-64.302" class="secondary" style="mix-blend-mode:multiply" transform="translate(284.431 306.881)"/><path fill="none" stroke="#121331" stroke-linecap="round" stroke-linejoin="round" stroke-width="7" d="m287.999 245.834-6.069 48.638-33.912 34.046-12.061 12.109 14.455 14.462 12.834 12.839c9.226-2.248 3.609-21.612 3.609-21.612l38.788-36.18 27.262-64.302" class="primary"/></g><g style="display:block"><path fill="#3A3347" d="m248.018 328.518-12.061 12.109 14.455 14.462 12.834 12.839c9.226-2.248 3.609-21.612 3.609-21.612" class="quaternary"/><path fill="none" stroke="#121331" stroke-linecap="round" stroke-linejoin="round" stroke-width="7" d="m248.018 328.518-12.061 12.109 14.455 14.462 12.834 12.839c9.226-2.248 3.609-21.612 3.609-21.612" class="primary"/></g><path fill="none" stroke="#121331" stroke-linecap="round" stroke-linejoin="round" stroke-width="7" d="m3.568-61.047-6.069 48.638-33.912 34.046-12.061 12.109 14.455 14.462 12.834 12.839c9.226-2.248 3.609-21.612 3.609-21.612l38.788-36.18 27.262-64.302" class="primary" style="display:block" transform="translate(284.431 306.881)"/><g style="display:block"><path fill="#646E78" d="m287.999 245.833 38.035 63.32.502 47.598.193 18.266h37.796c6.008-8.986-12.527-18.329-12.527-18.329l2.775-52.757-21.868-58.098" class="secondary"/><path fill="none" stroke="#121331" stroke-linecap="round" stroke-linejoin="round" stroke-width="7" d="m287.999 245.833 38.035 63.32.502 47.598.193 18.266h37.796c6.008-8.986-12.527-18.329-12.527-18.329l2.775-52.757-21.868-58.098" class="primary"/></g><g style="display:block"><path fill="#3A3347" d="m326.536 356.751.193 18.266h37.796c6.008-8.986-12.527-18.329-12.527-18.329" class="quaternary"/><path fill="none" stroke="#121331" stroke-linecap="round" stroke-linejoin="round" stroke-width="7" d="m326.536 356.751.193 18.266h37.796c6.008-8.986-12.527-18.329-12.527-18.329" class="primary"/></g><path fill="none" stroke="#121331" stroke-linecap="round" stroke-linejoin="round" stroke-width="7" d="M-38.862-64.592-.827-1.272l.502 47.598.193 18.266h37.796c6.008-8.986-12.527-18.329-12.527-18.329l2.775-52.757L6.044-64.592" class="primary" style="display:block" transform="translate(326.861 310.425)"/><g style="display:block"><path fill="#F9C9C0" d="M311.914 153.416h11.847a4.864 4.864 0 0 0 4.85-4.85v-20.373c0-8.919-7.298-16.217-16.217-16.217h-.48c-8.919 0-16.217 7.298-16.217 16.217v9.006c0 8.919 7.298 16.217 16.217 16.217z" class="senary"/><path fill="#F9C9C0" d="M-4.806 4.503v-9.006c0-7.872 5.687-14.473 13.154-15.916a16.105 16.105 0 0 0-3.062-.301h-.48c-8.919 0-16.217 7.298-16.217 16.217v9.006c0 8.919 7.298 16.217 16.217 16.217h6.605c-8.919 0-16.217-7.298-16.217-16.217z" class="senary" opacity=".5" style="mix-blend-mode:multiply" transform="translate(307.108 132.696)"/><path fill="#B26836" d="M295.879 126.403c.17-1.292.979-6.254 5.373-10.193 4.518-4.05 9.713-4.227 10.982-4.235 8.103 0 14.869 5.945 16.195 13.685-1.543-2.579-3.521-4.667-6.054-5.057-3.908-.601-5.295 3.418-10.677 3.874-4.852.411-6.753-2.735-10.961-1.511-2.341.681-3.928 2.285-4.858 3.437z" class="quinary"/><path fill="#B26836" d="M-9.758 7.214c.93-1.152 2.517-2.756 4.858-3.437a6.58 6.58 0 0 1 2.528-.247C-.457-1.76 4.14-5.79 9.758-6.898a16.307 16.307 0 0 0-3.161-.316c-1.269.008-6.464.185-10.982 4.235C-8.779.96-9.588 5.922-9.758 7.214z" class="quinary" opacity=".5" style="mix-blend-mode:multiply" transform="translate(305.637 119.189)"/></g><g style="display:block"><path fill="none" stroke="#121331" stroke-linecap="round" stroke-linejoin="round" stroke-width="7" d="M312.163 153.797h11.847a4.864 4.864 0 0 0 4.85-4.85v-20.373c0-8.919-7.298-16.217-16.217-16.217h-.48c-8.919 0-16.217 7.298-16.217 16.217v9.006c0 8.919 7.298 16.217 16.217 16.217z" class="primary"/><path fill="#4BB3FD" d="M332.905 245.833h-44.906v-53.121c0-12.401 10.053-22.453 22.453-22.453 12.4 0 22.453 10.052 22.453 22.453v53.121z" class="tertiary"/><path fill="none" stroke="#121331" stroke-linecap="round" stroke-linejoin="round" stroke-width="7" d="M332.905 245.833h-44.906v-53.121c0-12.401 10.053-22.453 22.453-22.453 0 0 0 0 0 0 12.4 0 22.453 10.052 22.453 22.453v53.121z" class="primary"/></g></g><g style="display:block"><path fill="#4BB3FD" d="m297.56 174.755-36.534 28.528-18.202 34.143c-2.36 16.589 14.89 18.927 14.89 18.927l20.476-38.493 29.825-23.124" class="tertiary"/><path fill="none" stroke="#121331" stroke-linecap="round" stroke-linejoin="round" stroke-width="7" d="m297.56 174.755-36.534 28.528-18.202 34.143c-2.36 16.589 14.89 18.927 14.89 18.927l20.476-38.493 29.825-23.124" class="primary"/></g></g><g style="display:block"><path fill="#EBE6EF" d="M157.298 52.974H72.221l-1.613 166.123h83.885l33.707 3.063V83.867c0-17.064-13.838-30.893-30.902-30.893z" class="septenary"/><path fill="#EBE6EF" d="M-12.803 83.026V-83.057l-28.005-.011-1.135 166.134h69.732c9.431.002 14.154.002 14.154 0 0-.004-18.233-.018-54.746-.04z" class="septenary" opacity=".5" style="mix-blend-mode:multiply" transform="translate(112.55 139.527)"/><path fill="none" stroke="#121331" stroke-linecap="round" stroke-linejoin="round" stroke-width="7" d="M187.721 222.15v.01" class="primary"/><path fill="#F24C00" d="m70.918 343.37 57.398-1.059h82.889v-84.669c0-15.945-9.687-29.631-23.485-35.492a38.196 38.196 0 0 0-5.254-1.793 38.745 38.745 0 0 0-9.806-1.26c-5.522-.033-46.16-.12-102.053 0" class="octonary"/><path fill="#EBE6EF" d="M175.308 278.998h-52.26v-28.36h52.26v28.36z" class="septenary"/><path fill="#F24C00" d="m71.742 103.882 116.217.125V87.523C187 65.625 175.517 53.09 158.471 53.069H71.742v50.813z" class="octonary"/><path fill="#FFC738" d="M120.1 103.882H71.768l.25-50.714h48.332l-.25 50.714z" class="nonary"/><path fill="#F24C00" d="M-14.57 61.627h29.14V-61.627h-29.14V61.627z" class="octonary" opacity=".5" style="mix-blend-mode:multiply" transform="translate(85.177 280.663)"/><path fill="#646E78" d="M70.607 344.201h140.6v-32.656h-140.6v32.656z" class="secondary"/><path fill="#646E78" d="M-14.57 16.328h29.14v-32.656h-29.14v32.656z" class="secondary" opacity=".5" style="mix-blend-mode:multiply" transform="translate(85.177 327.873)"/></g><g fill="none" stroke="#121331" stroke-linecap="round" stroke-linejoin="round" stroke-width="7" style="display:block"><path d="m70.337 344.257 1.991-289.375h83.398c17.064 0 30.902 13.828 30.902 30.892v138.294" class="primary"/><path d="M70.65 344.219h139.464V259.55c0-15.945-9.687-29.631-23.485-35.492a38.465 38.465 0 0 0-15.059-3.053H71.9m.5-118.747h114.218" class="primary"/><path d="M174.216 280.906h-52.26v-28.36h52.26v28.36zm35.898 31.881H70.65m16.23-31.88H70.65m48.332-226.024v47.372" class="primary"/></g></g></g></svg>