<svg width="254" height="254" viewBox="0 0 254 254" fill="none" xmlns="http://www.w3.org/2000/svg" style="">
<g clip-path="url(#clip0_3861_111786)">
<g filter="url(#filter0_d_3861_111786)">
<path fill="white" d="M9,127A118,118 0,1,1 245,127A118,118 0,1,1 9,127" class="NhEwkQwZ_0"></path>
</g>
<g filter="url(#filter1_d_3861_111786)">
<path fill="#14143C" d="M18,127A109,109 0,1,1 236,127A109,109 0,1,1 18,127" class="NhEwkQwZ_1"></path>
</g>
<path d="M100 173.992V177.807C100 178.974 99.5368 180.093 98.7122 180.919C97.8875 181.744 96.7689 182.209 95.602 182.21H86.4301C85.2628 182.209 84.1437 181.745 83.3183 180.919C82.4928 180.094 82.0286 178.975 82.0273 177.807V171.196" stroke="white" stroke-width="3" stroke-linecap="round" stroke-linejoin="round" class="NhEwkQwZ_2"></path>
<path d="M154.388 173.992V177.807C154.388 178.975 154.852 180.095 155.678 180.921C156.503 181.746 157.623 182.21 158.791 182.21H167.963C169.13 182.209 170.249 181.745 171.075 180.919C171.9 180.094 172.364 178.975 172.366 177.807V171.196" stroke="white" stroke-width="3" stroke-linecap="round" stroke-linejoin="round" class="NhEwkQwZ_3"></path>
<path d="M74.3584 137.131V158.91C74.3584 168.002 81.7307 171.967 90.8275 171.967H163.559C172.656 171.967 180.028 168.002 180.028 158.91V137.131C165.462 139.226 147.809 140.42 130.626 140.42C113.443 140.42 88.9292 139.226 74.3584 137.131Z" stroke="white" stroke-width="3" stroke-linecap="round" stroke-linejoin="round" class="NhEwkQwZ_4"></path>
<path d="M163.56 71.79H90.8279C81.7312 71.79 74.3823 75.159 74.3823 84.2558V137.131C88.9484 139.226 110.722 140.42 127.906 140.42C145.089 140.42 165.496 139.24 180.062 137.131V84.2558C180.029 75.159 172.657 71.79 163.56 71.79Z" stroke="white" stroke-width="3" stroke-linecap="round" stroke-linejoin="round" class="NhEwkQwZ_5"></path>
<path d="M151.865 158.567C151.277 160.564 152.236 162.095 154.214 161.856L162.672 160.846C166.186 160.423 169.56 157.434 169.649 154.488L169.753 151.006C169.828 148.596 167.168 147.811 164.189 148.939L156.7 151.786C155.747 152.179 154.888 152.767 154.177 153.512C153.467 154.258 152.921 155.144 152.574 156.114L151.865 158.567Z" stroke="#EB64C8" stroke-width="3" stroke-linecap="round" stroke-linejoin="round" class="NhEwkQwZ_6"></path>
<path d="M102.528 158.567C103.115 160.564 102.157 162.095 100.178 161.856L91.7207 160.846C88.2014 160.423 84.8324 157.434 84.7384 154.488L84.6397 151.006C84.5646 148.596 87.224 147.811 90.1984 148.939L97.6929 151.786C98.644 152.18 99.5022 152.768 100.212 153.513C100.922 154.259 101.467 155.145 101.814 156.114L102.528 158.567Z" stroke="#EB64C8" stroke-width="3" stroke-linecap="round" stroke-linejoin="round" class="NhEwkQwZ_7"></path>
<path d="M73.8279 92.375C73.8279 92.375 53.3931 94.0384 53.3931 100.363C53.3931 108.351 53.3931 118.11 57.2272 120.849C60.8218 123.42 64.3129 122.419 64.3129 118.97V95.3493" stroke="white" stroke-width="3" stroke-linecap="round" stroke-linejoin="round" class="NhEwkQwZ_8"></path>
<path d="M180.565 92.375C180.565 92.375 201 94.0384 201 100.363C201 108.351 201 118.11 197.166 120.849C193.567 123.42 190.08 122.419 190.08 118.97V95.3493" stroke="white" stroke-width="3" stroke-linecap="round" stroke-linejoin="round" class="NhEwkQwZ_9"></path>
<path d="M140.573 80.252H113.814" stroke="#EB64C8" stroke-width="3" stroke-linecap="round" stroke-linejoin="round" class="NhEwkQwZ_10"></path>
<path d="M75.3599 88.2588H179.028" stroke="white" stroke-width="3" stroke-linecap="round" stroke-linejoin="round" class="NhEwkQwZ_11"></path>
</g>
<defs>
<filter id="filter0_d_3861_111786" x="-7" y="-3" width="268" height="268" filterUnits="userSpaceOnUse" color-interpolation-filters="sRGB">
<feFlood flood-opacity="0" result="BackgroundImageFix"></feFlood>
<feColorMatrix in="SourceAlpha" type="matrix" values="0 0 0 0 0 0 0 0 0 0 0 0 0 0 0 0 0 0 127 0" result="hardAlpha"></feColorMatrix>
<feOffset dy="4"></feOffset>
<feGaussianBlur stdDeviation="8"></feGaussianBlur>
<feColorMatrix type="matrix" values="0 0 0 0 0 0 0 0 0 0 0 0 0 0 0 0 0 0 0.16 0"></feColorMatrix>
<feBlend mode="normal" in2="BackgroundImageFix" result="effect1_dropShadow_3861_111786"></feBlend>
<feBlend mode="normal" in="SourceGraphic" in2="effect1_dropShadow_3861_111786" result="shape"></feBlend>
</filter>
<filter id="filter1_d_3861_111786" x="2" y="6" width="250" height="250" filterUnits="userSpaceOnUse" color-interpolation-filters="sRGB">
<feFlood flood-opacity="0" result="BackgroundImageFix"></feFlood>
<feColorMatrix in="SourceAlpha" type="matrix" values="0 0 0 0 0 0 0 0 0 0 0 0 0 0 0 0 0 0 127 0" result="hardAlpha"></feColorMatrix>
<feOffset dy="4"></feOffset>
<feGaussianBlur stdDeviation="8"></feGaussianBlur>
<feColorMatrix type="matrix" values="0 0 0 0 0 0 0 0 0 0 0 0 0 0 0 0 0 0 0.16 0"></feColorMatrix>
<feBlend mode="normal" in2="BackgroundImageFix" result="effect1_dropShadow_3861_111786"></feBlend>
<feBlend mode="normal" in="SourceGraphic" in2="effect1_dropShadow_3861_111786" result="shape"></feBlend>
</filter>
<clipPath id="clip0_3861_111786">
<path width="254" height="254" fill="white" d="M0 0 L254 0 L254 254 L0 254 Z" class="NhEwkQwZ_12"></path>
</clipPath>
</defs>
<style data-made-with="vivus-instant">.NhEwkQwZ_0{stroke-dasharray:742 744;stroke-dashoffset:743;animation:NhEwkQwZ_draw_0 7900ms ease-in 0ms infinite,NhEwkQwZ_fade 7900ms linear 0ms infinite;}.NhEwkQwZ_1{stroke-dasharray:686 688;stroke-dashoffset:687;animation:NhEwkQwZ_draw_1 7900ms ease-in 0ms infinite,NhEwkQwZ_fade 7900ms linear 0ms infinite;}.NhEwkQwZ_2{stroke-dasharray:34 36;stroke-dashoffset:35;animation:NhEwkQwZ_draw_2 7900ms ease-in 0ms infinite,NhEwkQwZ_fade 7900ms linear 0ms infinite;}.NhEwkQwZ_3{stroke-dasharray:34 36;stroke-dashoffset:35;animation:NhEwkQwZ_draw_3 7900ms ease-in 0ms infinite,NhEwkQwZ_fade 7900ms linear 0ms infinite;}.NhEwkQwZ_4{stroke-dasharray:270 272;stroke-dashoffset:271;animation:NhEwkQwZ_draw_4 7900ms ease-in 0ms infinite,NhEwkQwZ_fade 7900ms linear 0ms infinite;}.NhEwkQwZ_5{stroke-dasharray:332 334;stroke-dashoffset:333;animation:NhEwkQwZ_draw_5 7900ms ease-in 0ms infinite,NhEwkQwZ_fade 7900ms linear 0ms infinite;}.NhEwkQwZ_6{stroke-dasharray:51 53;stroke-dashoffset:52;animation:NhEwkQwZ_draw_6 7900ms ease-in 0ms infinite,NhEwkQwZ_fade 7900ms linear 0ms infinite;}.NhEwkQwZ_7{stroke-dasharray:51 53;stroke-dashoffset:52;animation:NhEwkQwZ_draw_7 7900ms ease-in 0ms infinite,NhEwkQwZ_fade 7900ms linear 0ms infinite;}.NhEwkQwZ_8{stroke-dasharray:78 80;stroke-dashoffset:79;animation:NhEwkQwZ_draw_8 7900ms ease-in 0ms infinite,NhEwkQwZ_fade 7900ms linear 0ms infinite;}.NhEwkQwZ_9{stroke-dasharray:78 80;stroke-dashoffset:79;animation:NhEwkQwZ_draw_9 7900ms ease-in 0ms infinite,NhEwkQwZ_fade 7900ms linear 0ms infinite;}.NhEwkQwZ_10{stroke-dasharray:27 29;stroke-dashoffset:28;animation:NhEwkQwZ_draw_10 7900ms ease-in 0ms infinite,NhEwkQwZ_fade 7900ms linear 0ms infinite;}.NhEwkQwZ_11{stroke-dasharray:104 106;stroke-dashoffset:105;animation:NhEwkQwZ_draw_11 7900ms ease-in 0ms infinite,NhEwkQwZ_fade 7900ms linear 0ms infinite;}.NhEwkQwZ_12{stroke-dasharray:1016 1018;stroke-dashoffset:1017;animation:NhEwkQwZ_draw_12 7900ms ease-in 0ms infinite,NhEwkQwZ_fade 7900ms linear 0ms infinite;}@keyframes NhEwkQwZ_draw{100%{stroke-dashoffset:0;}}@keyframes NhEwkQwZ_fade{0%{stroke-opacity:1;}94.9367088607595%{stroke-opacity:1;}100%{stroke-opacity:0;}}@keyframes NhEwkQwZ_draw_0{7.59493670886076%{stroke-dashoffset: 743}23.62869198312236%{ stroke-dashoffset: 0;}100%{ stroke-dashoffset: 0;}}@keyframes NhEwkQwZ_draw_1{8.263009845288327%{stroke-dashoffset: 687}24.296765119549928%{ stroke-dashoffset: 0;}100%{ stroke-dashoffset: 0;}}@keyframes NhEwkQwZ_draw_2{8.931082981715893%{stroke-dashoffset: 35}24.964838255977494%{ stroke-dashoffset: 0;}100%{ stroke-dashoffset: 0;}}@keyframes NhEwkQwZ_draw_3{9.59915611814346%{stroke-dashoffset: 35}25.63291139240506%{ stroke-dashoffset: 0;}100%{ stroke-dashoffset: 0;}}@keyframes NhEwkQwZ_draw_4{10.267229254571026%{stroke-dashoffset: 271}26.30098452883263%{ stroke-dashoffset: 0;}100%{ stroke-dashoffset: 0;}}@keyframes NhEwkQwZ_draw_5{10.935302390998594%{stroke-dashoffset: 333}26.9690576652602%{ stroke-dashoffset: 0;}100%{ stroke-dashoffset: 0;}}@keyframes NhEwkQwZ_draw_6{11.603375527426161%{stroke-dashoffset: 52}27.63713080168776%{ stroke-dashoffset: 0;}100%{ stroke-dashoffset: 0;}}@keyframes NhEwkQwZ_draw_7{12.271448663853727%{stroke-dashoffset: 52}28.305203938115326%{ stroke-dashoffset: 0;}100%{ stroke-dashoffset: 0;}}@keyframes NhEwkQwZ_draw_8{12.939521800281293%{stroke-dashoffset: 79}28.973277074542896%{ stroke-dashoffset: 0;}100%{ stroke-dashoffset: 0;}}@keyframes NhEwkQwZ_draw_9{13.60759493670886%{stroke-dashoffset: 79}29.64135021097046%{ stroke-dashoffset: 0;}100%{ stroke-dashoffset: 0;}}@keyframes NhEwkQwZ_draw_10{14.275668073136426%{stroke-dashoffset: 28}30.309423347398027%{ stroke-dashoffset: 0;}100%{ stroke-dashoffset: 0;}}@keyframes NhEwkQwZ_draw_11{14.943741209563996%{stroke-dashoffset: 105}30.977496483825597%{ stroke-dashoffset: 0;}100%{ stroke-dashoffset: 0;}}@keyframes NhEwkQwZ_draw_12{15.611814345991561%{stroke-dashoffset: 1017}31.645569620253166%{ stroke-dashoffset: 0;}100%{ stroke-dashoffset: 0;}}</style></svg>
